<?xml version="1.0" encoding="UTF-8"?>
<svg width="95" height="32" xmlns="http://www.w3.org/2000/svg" version="1.1" viewBox="0 0 95 32">
  <defs>
    <style>
      .cls-1 {
        isolation: isolate;
      }

      .cls-2 {
        fill: #fff;
      }

      .cls-3 {
        fill: red;
        fill-opacity: 0;
      }

      .cls-4 {
        fill: #0165dc;
      }
    </style>
  </defs>
  <!-- Generator: Adobe Illustrator 28.7.1, SVG Export Plug-In . SVG Version: 1.2.0 Build 142)  -->
  <g>
    <g id="Layer_1">
      <rect id="Placement_Area" class="cls-3" width="73.7" height="32"/>
      <g id="Group_2579">
        <path id="Background" class="cls-4" d="M16.4,0h62.2c9,0,16.4,7.2,16.4,16h0c0,8.8-7.3,16-16.4,16H16.4C7.3,32,0,24.8,0,16h0C0,7.2,7.3,0,16.4,0Z"/>
      </g>
      <g id="Text" class="cls-1">
        <g class="cls-1">
          <path class="cls-2" d="M20.9,12.5h-2.8c0,0,0,0,0-.1l.2-1.3c0,0,0-.1.1-.1h6.9c0,0,.1,0,.1.1v1.2c.1,0,0,.1,0,.1h-2.8v7.3c0,0,0,.1-.1.1h-1.4c0,0-.1,0-.1-.1v-7.3Z"/>
          <path class="cls-2" d="M26.8,13.3c0,0,.1,0,.2.1,0,.2.1.5.1.8.5-.6,1.3-1.1,2.2-1.1s.1,0,.1,0v1.4c0,0,0,0-.1,0-1,0-1.8.3-2.1.7v4.4c0,0,0,.1-.1.1h-1.4c0,0-.1,0-.1-.1v-4.7c0-.6,0-1.4,0-1.8,0,0,0,0,0,0h1.3Z"/>
          <path class="cls-2" d="M31.9,13.3c0,0,0,0,.1,0,.9,2.5,1.4,4,1.6,4.7.5-1.4.9-2.8,1.6-4.7,0,0,0,0,.2,0h1.4c0,0,0,0,0,.1-1,3-2.5,6.7-3.6,9.2,0,0,0,0-.2,0h-1.5c0,.1,0,0,0,0,.4-.8.9-1.8,1.3-2.8,0,0,0-.1,0-.2-.4-.9-1.7-4.1-2.5-6.3,0,0,0,0,0,0h1.6Z"/>
          <path class="cls-2" d="M40.8,11.4c0-.6.4-.9,1-.9s.9.4.9.9-.4.9-1,.9-.9-.4-.9-.9ZM40.9,13.4c0,0,0,0,.1,0h1.5c0,0,.1,0,.1,0v6.5c0,0,0,.1-.1.1h-1.4c0,0-.1,0-.1-.1v-6.5Z"/>
          <path class="cls-2" d="M47.7,19.8c0,0,0,.1,0,.2-.4.1-.7.2-1.2.2-1.1,0-1.8-.5-1.8-1.9v-3.6h-.9c0,0,0,0,0-.1v-1.1c0,0,0-.1.1-.1h.9c0-.5,0-1.3.1-1.7,0,0,0-.1.1-.1l1.4-.2c0,0,0,0,0,0,0,.4,0,1.3,0,1.9h1.3c0,0,0,0,0,0v1.2c0,0,0,0,0,0h-1.4v3.2c0,.6.2.9.8.9s.3,0,.5,0c0,0,0,0,0,0v1Z"/>
          <path class="cls-2" d="M52,14.9c0-.5,0-1.2,0-1.5,0,0,0,0,0,0h1.3c0,0,.1,0,.2,0,0,.1,0,.3,0,.5.6-.5,1.3-.7,2-.7s2.3.5,2.3,2.7v4c0,0,0,.1-.1.1h-1.4c0,0-.1,0-.1-.1v-3.9c0-.9-.4-1.4-1.2-1.4s-1,.2-1.3.6v4.7c0,0,0,.1-.1.1h-1.5c0,0-.1,0-.1-.1v-5Z"/>
          <path class="cls-2" d="M66,16.6c0,2.1-1.4,3.5-3.3,3.5s-3.4-1.8-3.4-3.5,1.3-3.5,3.4-3.5,3.3,1.6,3.3,3.5ZM61,16.6c0,1.3.6,2.1,1.7,2.1s1.6-.7,1.6-2.1-.5-2.1-1.7-2.1-1.6.8-1.6,2.1Z"/>
          <path class="cls-2" d="M73,20c0,0-.1,0-.2-.1-.8-3-1-4.2-1.2-4.9h0c-.3,1.4-.7,2.7-1.3,4.9,0,0,0,.1-.2.1h-1.5c-.1,0-.2,0-.2-.1l-1.8-6.5c0,0,0-.1,0-.1h1.5c0,0,0,0,.1,0,.8,3.2,1,4.5,1.1,5h0c.1-.5.3-1.7,1.3-5,0,0,0-.1.1-.1h1.6c0,0,0,0,.1,0,.9,3.3,1.1,4.5,1.2,5.1h0c.2-.8.4-2.2,1.2-5.1,0,0,0,0,.1,0h1.4c0,0,.1,0,0,0l-2,6.5c0,0,0,.1-.2.1h-1.5Z"/>
        </g>
      </g>
    </g>
  </g>
</svg>